<?xml version="1.0" encoding="utf-8"?>
<svg version="1.1" id="Layer_1" xmlns="http://www.w3.org/2000/svg" x="0px" y="0px"
	 viewBox="0 0 600.9 113.4" style="enable-background:new 0 0 600.9 113.4;" xml:space="preserve">
<style type="text/css">
	.st0{fill:#F47820;}
	.st1{fill:#084F71;}
	.st2{fill:#53565A;}
</style>
<g>
	<path class="st0" d="M92.3,16.8c0,0-10.5-10.7-27.7-10.9C44.8,5.7,32.2,18.8,27,25.6c-0.6-4.1-0.4-10,3.5-15.5
		c0,0-14.9,1.6-23.1,29.6c0,0-3.8,14.7,4.7,30.1c9.7,17.8,27,22.5,35.4,23.7c-3.1,2.6-8.2,5.4-14.7,4.6c0,0,8.8,12.4,36.4,5.8
		c0,0,14.2-4,23-19.2c10.1-17.6,5.4-35.4,2.2-43.4c3.8,1.5,8.6,4.6,11.3,10.8C105.7,52.1,111.8,38.1,92.3,16.8z M87.7,61.6
		C77.3,78.8,59.8,76.8,48.1,70c0,0-1.2,10.6,10.3,12.7c9.1,1.6,22.4-4.4,22.4-4.4s-1.5,1.7-4.2,3.7c-14.1,10.5-35.6,9.7-42.9-4.6
		c-10.7-21,1.3-31.4,12.7-39.5c0,0-8.3-6.4-15.9,2.8C24.7,48.1,23.1,63,23.1,63s0,0,0,0c-5.2-19.2,7-42.8,24.3-41.5
		c22.2,1.7,24.9,16.2,26.9,31c0,0,9.6-4.2,5.5-15.5C76.7,28.1,65,19.2,65,19.2s0,0,0,0C83.7,24.2,96.8,46.4,87.7,61.6z"/>
	<g>
		<path class="st1" d="M141.6,31.4h-20.3v-8.8h51.1v8.8H152v55.4h-10.4V31.4z"/>
		<path class="st1" d="M207.2,42.1c3.6,2.5,5.4,6.5,5.3,12v22.7c0,4.3-1.9,7.3-5.7,8.9c-3.8,1.7-9.2,2.5-16.2,2.5
			c-5.6,0-10.2-1.2-13.9-3.5c-3.7-2.3-5.5-6.2-5.5-11.7c0-5.2,1.5-9,4.5-11.6c3-2.6,7.2-3.9,12.7-3.9c5.7,0,10.4,1.1,14.2,3.4v-4.5
			c0-6.4-3.9-9.6-11.6-9.6c-2.8,0-5.5,0.4-8.3,1.3c-2.8,0.9-5.1,2-6.9,3.5v-9.3c1.8-1.1,4.3-2.1,7.7-2.8c3.4-0.8,6.9-1.1,10.4-1.1
			C199.1,38.3,203.5,39.6,207.2,42.1z M200.2,79.6c1.6-0.6,2.5-1.7,2.5-3.4v-9.2c-3.2-1.4-6.7-2.1-10.6-2.1c-3.6,0-6.3,0.6-8.2,1.9
			c-1.9,1.3-2.8,3.2-2.8,5.7c0,2.6,1.1,4.6,3.2,6c2.1,1.3,4.6,2,7.5,2C195.8,80.5,198.6,80.2,200.2,79.6z"/>
		<path class="st1" d="M225.5,86.8v-63h9.8v63H225.5z"/>
		<path class="st1" d="M285.1,45.4c3.4,4.8,5.1,11.4,5.1,20h-33.3c0.3,4.7,1.7,8.2,4.1,10.6c2.4,2.4,5.9,3.6,10.3,3.6
			c2.9,0,5.7-0.4,8.3-1.1c2.6-0.7,5-1.7,7-2.8V85c-4.9,2.1-10.6,3.2-16.9,3.2c-7.1,0-12.7-2.2-16.8-6.5c-4.1-4.3-6.1-10.4-6.1-18.4
			c0-8.1,1.9-14.3,5.8-18.7c3.8-4.3,9.3-6.5,16.3-6.5C276.3,38.2,281.7,40.6,285.1,45.4z M260.8,49c-1.9,1.8-3.1,4.8-3.7,9h23
			c-0.4-4-1.6-7-3.4-8.8c-1.8-1.9-4.5-2.8-8-2.8C265.3,46.4,262.7,47.2,260.8,49z"/>
		<path class="st1" d="M312,39.7c4.1-0.9,8-1.4,11.7-1.4c6.6,0,11.5,1.4,14.6,4.2c3.1,2.8,4.7,7.1,4.7,12.9v31.4h-9.9V56.8
			c0-6.6-3.7-9.9-11.2-9.9c-3.6,0-7,0.6-10.3,1.8v38.2h-9.9V43.2C304.5,41.8,307.9,40.6,312,39.7z"/>
		<path class="st1" d="M363.7,84.5c-2.5-2.3-3.7-5.6-3.7-9.9V46.4h-7.7v-8.2h7.7V23.8h10.2v14.4h11.5v8.2h-11.5v26.2
			c0,2.3,0.4,4,1.2,5.1c0.8,1,2.3,1.6,4.3,1.6c1,0,2.1-0.1,3.2-0.4c1.1-0.3,2-0.6,2.8-1.1v8.8c-2.2,1-4.8,1.5-7.8,1.5
			C369.6,88,366.2,86.9,363.7,84.5z"/>
		<path class="st2" d="M402.8,86.8c-3-0.8-6.2-2.1-9.6-3.8V72.5c2.5,2,5.5,3.6,9,4.9c3.6,1.2,7.3,1.8,11.2,1.8
			c3.8,0,6.7-0.8,8.7-2.4c2-1.6,2.9-3.8,2.9-6.7c0-2-0.6-3.6-1.7-4.8c-1.1-1.3-2.6-2.3-4.3-3.1c-1.7-0.8-4.1-1.8-7.2-2.9l-2.1-0.8
			c-3.5-1.2-6.3-2.4-8.6-3.7c-2.2-1.3-4.1-3.1-5.6-5.4c-1.5-2.3-2.3-5.3-2.3-9c0-3,0.8-5.9,2.3-8.6c1.5-2.7,3.9-4.9,7.1-6.7
			c3.2-1.7,7.2-2.6,12.1-2.6c3.5,0,6.5,0.3,8.8,1c2.4,0.7,5.2,1.8,8.5,3.4v10.2c-3.2-2-6-3.5-8.3-4.5c-2.3-1-5.1-1.5-8.3-1.5
			c-3.7,0-6.6,0.8-8.5,2.3c-2,1.5-2.9,3.5-2.9,6c0,2.1,0.5,3.8,1.6,5.1c1.1,1.3,2.5,2.3,4.2,3.1c1.7,0.8,4.2,1.7,7.5,2.8
			c3.8,1.3,7,2.6,9.6,3.9c2.6,1.4,4.6,3.2,6.3,5.6c1.6,2.4,2.5,5.4,2.5,9c0,3.5-0.8,6.6-2.3,9.5c-1.5,2.9-3.9,5.2-7.2,6.9
			c-3.2,1.7-7.3,2.6-12.1,2.6C409.6,87.9,405.9,87.5,402.8,86.8z"/>
		<path class="st2" d="M481.3,42.1c3.6,2.5,5.4,6.5,5.3,12v22.7c0,4.3-1.9,7.3-5.7,8.9c-3.8,1.7-9.2,2.5-16.2,2.5
			c-5.6,0-10.2-1.2-13.9-3.5c-3.7-2.3-5.5-6.2-5.5-11.7c0-5.2,1.5-9,4.5-11.6c3-2.6,7.2-3.9,12.7-3.9c5.7,0,10.4,1.1,14.2,3.4v-4.5
			c0-6.4-3.9-9.6-11.6-9.6c-2.8,0-5.5,0.4-8.3,1.3c-2.8,0.9-5.1,2-6.9,3.5v-9.3c1.8-1.1,4.3-2.1,7.7-2.8c3.4-0.8,6.9-1.1,10.4-1.1
			C473.3,38.3,477.7,39.6,481.3,42.1z M474.4,79.6c1.6-0.6,2.5-1.7,2.5-3.4v-9.2c-3.2-1.4-6.7-2.1-10.6-2.1c-3.6,0-6.3,0.6-8.2,1.9
			c-1.9,1.3-2.8,3.2-2.8,5.7c0,2.6,1.1,4.6,3.2,6c2.1,1.3,4.6,2,7.5,2C469.9,80.5,472.7,80.2,474.4,79.6z"/>
		<path class="st2" d="M536.5,41.4c3.5,2.1,5.2,5.1,5.2,9.2v37.6c0,5.4-1.8,9.8-5.3,13.2c-3.5,3.4-9.1,5.1-16.8,5.1
			c-5.6,0-10.7-0.9-15.3-2.6v-9.1c5.2,2,10.1,2.9,14.6,2.9c5,0,8.5-0.9,10.3-2.7c1.8-1.8,2.7-4.2,2.7-7.1v-3.2c-1.8,1-3.8,1.8-6,2.5
			c-2.2,0.6-4.3,0.9-6.4,0.9c-6.9-0.1-12.2-2.2-15.8-6.3c-3.6-4.1-5.4-9.9-5.4-17.5c0-9.8,2.3-16.6,6.8-20.4
			c4.5-3.8,10.6-5.7,18.1-5.7C528.6,38.3,533,39.4,536.5,41.4z M511.6,75.8c2.1,2.9,5.3,4.3,9.5,4.3c4.1,0,7.7-0.9,10.8-2.7V52.5
			c0-2.2-0.8-3.7-2.5-4.5c-1.7-0.8-3.9-1.2-6.8-1.2c-5.4,0-9.1,1.5-11.2,4.6c-2.1,3.1-3.1,7.3-3.1,12.8
			C508.4,69,509.5,72.9,511.6,75.8z"/>
		<path class="st2" d="M591.2,45.4c3.4,4.8,5.1,11.4,5.1,20H563c0.3,4.7,1.7,8.2,4.1,10.6c2.4,2.4,5.9,3.6,10.3,3.6
			c2.9,0,5.7-0.4,8.3-1.1c2.6-0.7,5-1.7,7-2.8V85c-4.9,2.1-10.6,3.2-16.9,3.2c-7.1,0-12.7-2.2-16.8-6.5c-4.1-4.3-6.1-10.4-6.1-18.4
			c0-8.1,1.9-14.3,5.8-18.7c3.8-4.3,9.3-6.5,16.3-6.5C582.4,38.2,587.8,40.6,591.2,45.4z M566.9,49c-1.9,1.8-3.1,4.8-3.7,9h23
			c-0.4-4-1.6-7-3.4-8.8c-1.8-1.9-4.5-2.8-8-2.8C571.4,46.4,568.8,47.2,566.9,49z"/>
	</g>
</g>
</svg>
